<svg xmlns="http://www.w3.org/2000/svg" version="1.1" xmlns:xlink="http://www.w3.org/1999/xlink" xmlns:svgjs="http://svgjs.dev/svgjs" width="1500" height="511" viewBox="0 0 1500 511"><g transform="matrix(1,0,0,1,-0.9090909090909918,0.8190214375938467)"><svg viewBox="0 0 396 135" data-background-color="#ffffff" preserveAspectRatio="xMidYMid meet" height="511" width="1500" xmlns="http://www.w3.org/2000/svg" xmlns:xlink="http://www.w3.org/1999/xlink"><g id="tight-bounds" transform="matrix(1,0,0,1,0.2400000000000091,-0.21637552656588355)"><svg viewBox="0 0 395.52 135.43275105313177" height="135.43275105313177" width="395.52"><g><svg viewBox="0 0 395.52 135.43275105313177" height="135.43275105313177" width="395.52"><g transform="matrix(1,0,0,1,0,83.70287344334054)"><svg viewBox="0 0 395.52 51.72987760979122" height="51.72987760979122" width="395.52"><g id="textblocktransform"><svg viewBox="0 0 395.52 51.72987760979122" height="51.72987760979122" width="395.52" id="textblock"><g><svg viewBox="0 0 395.52 51.72987760979122" height="51.72987760979122" width="395.52"><g transform="matrix(1,0,0,1,0,0)"><svg width="395.52" viewBox="1.56 -38.23 305.18 39.91" height="51.72987760979122" data-palette-color="#1d32d3"><path d="M27.47-33.89L35.08-35.94Q35.21-35.96 35.31-35.97 35.42-35.99 35.52-35.99L35.52-35.99Q35.96-35.99 36.23-35.71 36.5-35.42 36.6-34.72L36.6-34.72Q36.65-34.28 36.76-33.48 36.87-32.69 37-31.73 37.13-30.76 37.29-29.74 37.45-28.71 37.57-27.84 37.7-26.98 37.79-26.35 37.89-25.73 37.92-25.56L37.92-25.56Q38.45-21.24 38.87-18.63 39.28-16.02 39.45-14.77L39.45-14.77 41.09-1.56 40.84-0.81Q40.8-0.63 40.21-0.39 39.62-0.15 38.79 0.13 37.96 0.42 36.99 0.68 36.01 0.95 35.18 1.17 34.35 1.39 33.78 1.53 33.2 1.66 33.18 1.66L33.18 1.66Q32.59 1.66 32.25 0.81 31.91-0.05 31.69-1.37 31.47-2.69 31.34-4.25 31.2-5.81 31.03-7.25L31.03-7.25Q30.88-8.45 30.76-9.67 30.64-10.89 30.49-12.16L30.49-12.16 29.54-19.29 20.48-2.71Q20.07-2.12 19.65-1.87 19.24-1.61 18.87-1.61L18.87-1.61Q18.33-1.61 18.03-1.93 17.72-2.25 17.6-2.71L17.6-2.71Q17.14-4.25 16.81-5.31 16.48-6.37 16.2-7.25 15.92-8.13 15.67-8.96 15.43-9.79 15.12-10.88 14.82-11.96 14.44-13.44 14.06-14.92 13.53-17.07L13.53-17.07 12.77-13.55 9.25 1.37Q9.18 1.66 8.64 1.66L8.64 1.66Q8.13 1.66 7.24 1.46 6.35 1.27 5.38 0.99 4.42 0.71 3.5 0.4 2.59 0.1 2.05-0.15L2.05-0.15Q1.93-0.2 1.75-0.38 1.56-0.56 1.56-0.95L1.56-0.95Q1.56-1.05 1.64-1.37 1.71-1.68 1.82-2.11 1.93-2.54 2.06-2.98 2.2-3.42 2.32-3.76L2.32-3.76Q2.64-4.59 2.89-5.71 3.15-6.84 3.37-7.98 3.59-9.13 3.77-10.18 3.96-11.23 4.13-11.94L4.13-11.94 7.13-25.95 8.03-29.91Q8.2-30.66 8.36-31.38 8.52-32.1 8.64-32.69 8.76-33.28 8.84-33.64 8.91-34.01 8.91-34.06L8.91-34.06 15.01-35.94Q15.36-35.94 15.61-35.88 15.87-35.82 15.94-35.47L15.94-35.47 20.8-19.85 27.47-33.89ZM66.65-20.26L66.65-20.26Q66.55-19.92 66.28-19.3 66.01-18.68 65.66-17.9 65.31-17.11 64.9-16.22 64.5-15.33 64.11-14.43L64.11-14.43Q63.96-14.09 63.84-13.93 63.72-13.77 63.45-13.7 63.18-13.62 62.71-13.61 62.23-13.6 61.37-13.57L61.37-13.57 57.98-13.5 57.3-6.03 69.82-6.03 69.82-5.08Q69.77-5.03 69.41-4.43 69.04-3.83 68.55-3 68.06-2.17 67.53-1.33 66.99-0.49 66.62 0.02L66.62 0.02Q66.38 0.46 66.06 0.72 65.74 0.98 65.37 1.1 64.99 1.22 64.54 1.25 64.08 1.27 63.55 1.27L63.55 1.27Q61.35 1.27 58.97 1.17 56.59 1.07 54.22 0.93 51.85 0.78 49.59 0.6 47.34 0.42 45.41 0.22L45.41 0.22Q45.24 0.2 45.1 0.02 44.97-0.15 44.97-0.37L44.97-0.37Q44.87-0.37 45.1-0.78 45.33-1.2 45.75-1.86 46.16-2.51 46.66-3.36 47.17-4.2 47.63-5.05L47.63-5.05 48.02-10.55Q48.12-11.94 48.18-12.62 48.24-13.31 48.24-13.35L48.24-13.35Q46.77-13.38 46.05-13.5 45.33-13.62 45.33-14.04L45.33-14.04Q45.33-14.23 45.69-14.77 46.04-15.31 46.56-16 47.07-16.7 47.64-17.46 48.22-18.21 48.65-18.85L48.65-18.85 49.27-27.15 49.19-27.15Q48.65-27.12 48.22-27.11 47.78-27.1 47.41-27.1L47.41-27.1Q46.24-27.1 45.74-27.23 45.24-27.37 45.24-27.73L45.24-27.73Q45.24-27.91 45.53-28.44 45.82-28.98 46.26-29.68 46.7-30.37 47.19-31.14 47.68-31.91 48.07-32.57L48.07-32.57 49.53-35.06 59.74-35.06 71.77-35.94Q71.8-35.94 71.91-35.93 72.02-35.91 72.14-35.85 72.26-35.79 72.37-35.64 72.48-35.5 72.48-35.23L72.48-35.23 72.12-33.96Q71.95-33.42 71.7-32.82 71.46-32.23 71.16-31.59L71.16-31.59 70.09-28.76Q69.92-28.34 69.7-28.13 69.48-27.91 68.77-27.88L68.77-27.88Q66.92-27.83 64.63-27.72 62.35-27.61 59.4-27.51L59.4-27.51Q59.3-27.17 59.3-26.97 59.3-26.76 59.25-26.17L59.25-26.17 59.13-25.05Q59.08-24.27 58.98-23.36 58.88-22.46 58.74-21.14L58.74-21.14Q59.98-21.19 61.17-21.24 62.35-21.29 63.33-21.33 64.3-21.36 65.02-21.39 65.74-21.41 66.04-21.41L66.04-21.41Q66.23-21.41 66.48-21.26 66.72-21.12 66.72-20.7L66.72-20.7Q66.72-20.51 66.65-20.26ZM79.05 1.27L74.6 1.27Q74.34 1.22 74.21 1 74.09 0.78 74.09 0.51L74.09 0.51Q74.09 0.29 74.19 0.12L74.19 0.12 77.19-5.62Q77.22-5.71 77.28-6.37 77.34-7.03 77.41-8.02 77.49-9.01 77.57-10.23 77.66-11.45 77.75-12.65 77.85-13.84 77.94-14.93 78.02-16.02 78.1-16.75L78.1-16.75Q78.12-17.04 78.17-17.64 78.22-18.24 78.27-19.02 78.32-19.8 78.39-20.7 78.46-21.61 78.54-22.51L78.54-22.51 78.88-27.61Q78.22-27.47 77.51-27.31 76.8-27.15 76.13-27.03 75.46-26.9 74.86-26.82 74.26-26.73 73.82-26.73L73.82-26.73Q73.55-26.73 73.42-26.98 73.29-27.22 73.29-27.49L73.29-27.49Q73.29-27.81 73.43-27.95L73.43-27.95 79.63-33.74Q80.39-34.42 81.14-34.85 81.88-35.28 82.93-35.52 83.98-35.77 85.51-35.85 87.03-35.94 89.37-35.94L89.37-35.94Q93.38-35.94 96.48-35.11 99.58-34.28 101.73-32.74L101.73-32.74Q103.32-31.64 104.56-30.44 105.81-29.25 106.66-27.8 107.51-26.34 107.95-24.6 108.39-22.85 108.39-20.65L108.39-20.65Q108.39-16.48 107.15-13.23 105.9-9.99 103.75-7.56 101.61-5.13 98.74-3.44 95.87-1.76 92.61-0.71 89.35 0.34 85.87 0.81 82.39 1.27 79.05 1.27L79.05 1.27ZM88.79-28.13L88.79-28.13 88.5-25.17Q88.35-23.63 88.19-21.89 88.03-20.14 87.89-18.35 87.74-16.55 87.59-14.81 87.45-13.06 87.32-11.55 87.2-10.03 87.1-8.84 87.01-7.64 86.93-6.93L86.93-6.93 86.86-6.2Q89.81-6.2 91.85-7.15 93.89-8.11 95.16-9.78 96.43-11.45 97-13.7 97.58-15.94 97.58-18.53L97.58-18.53Q97.58-20.39 97.07-22.11 96.55-23.83 95.58-25.39L95.58-25.39Q94.6-26.95 93.18-27.73 91.77-28.52 89.99-28.52L89.99-28.52Q89.69-28.52 89.35-28.38 89.01-28.25 88.79-28.13ZM142.06-25.37L142.06-25.37Q142.03-23.27 141.66-21.61 141.28-19.95 140.58-18.62 139.89-17.29 138.9-16.22 137.91-15.16 136.64-14.23L136.64-14.23Q134.2-12.48 131.29-11.58 128.39-10.69 125.46-10.69L125.46-10.69Q124.97-10.69 124.49-10.72 124.02-10.74 123.53-10.79L123.53-10.79 122.72-1.88 122.31-1.12Q122.26-1.03 121.48-0.73 120.7-0.44 119.52-0.05L119.52-0.05 117.99 0.46Q117.25 0.73 116.69 0.95 116.13 1.17 115.64 1.34 115.15 1.51 114.69 1.6 114.23 1.68 113.71 1.68L113.71 1.68Q113.37 1.68 113.18 1.51 112.98 1.34 112.98 0.85L112.98 0.85 113.25-3.32Q113.32-4.57 113.43-5.82 113.54-7.08 113.64-8.69L113.64-8.69 114.1-14.53Q114.25-16.31 114.37-18.09 114.49-19.87 114.62-21.48 114.74-23.1 114.84-24.5 114.93-25.9 115.01-26.95L115.01-26.95Q113.69-26.66 112.9-26.53 112.1-26.39 111.69-26.39L111.69-26.39Q111.17-26.39 111.17-26.83L111.17-26.83Q111.52-28.03 111.81-29.17L111.81-29.17Q112.08-30.15 112.36-31.19 112.64-32.23 112.83-32.93L112.83-32.93Q112.96-33.37 113.12-33.61 113.27-33.84 113.53-33.97 113.79-34.11 114.19-34.22 114.59-34.33 115.18-34.52L115.18-34.52Q115.64-34.67 116.48-34.85 117.33-35.03 118.41-35.22 119.5-35.4 120.77-35.57 122.04-35.74 123.34-35.88 124.65-36.01 125.92-36.1 127.19-36.18 128.31-36.18L128.31-36.18Q131.1-36.18 133.59-35.67 136.08-35.16 137.96-33.92 139.84-32.69 140.95-30.6 142.06-28.52 142.06-25.37ZM124.21-18.04L124.21-18.04Q124.21-17.77 124.31-17.57 124.41-17.36 124.85-17.36L124.85-17.36Q125.53-17.36 126.47-17.66 127.41-17.97 128.35-18.58 129.29-19.19 130.1-20.09 130.9-21 131.32-22.22L131.32-22.22Q131.49-22.71 131.6-23.46 131.71-24.22 131.71-25.24L131.71-25.24Q131.71-26.95 130.52-27.76 129.34-28.56 127.43-28.56L127.43-28.56Q127.12-28.56 126.71-28.53 126.31-28.49 125.96-28.39 125.6-28.3 125.36-28.16 125.11-28.03 125.09-27.81L125.09-27.81 125.04-27.27Q125.02-26.95 124.94-26.23 124.87-25.51 124.78-24.58 124.7-23.66 124.61-22.63 124.53-21.61 124.44-20.68 124.36-19.75 124.3-19.04 124.24-18.33 124.21-18.04ZM154.31-16.65L154.31-16.65Q154.31-14.89 154.69-13.12 155.07-11.35 155.95-9.94 156.83-8.52 158.27-7.64 159.71-6.76 161.83-6.76L161.83-6.76Q163.47-6.86 164.7-7.43 165.93-8.01 166.82-8.92 167.71-9.84 168.3-11.02 168.89-12.21 169.23-13.51 169.57-14.82 169.7-16.19 169.84-17.55 169.84-18.82L169.84-18.82Q169.84-20.56 169.37-22.18 168.91-23.8 167.98-25.05 167.06-26.29 165.68-27.05 164.3-27.81 162.47-27.81L162.47-27.81Q161.03-27.81 159.87-27.27 158.71-26.73 157.8-25.84 156.9-24.95 156.25-23.79 155.61-22.63 155.18-21.4 154.75-20.17 154.54-18.93 154.34-17.7 154.31-16.65ZM159.07 1.27L159.07 1.27Q155.41 1.27 152.53-0.1 149.65-1.46 147.66-3.8 145.67-6.13 144.61-9.19 143.54-12.26 143.54-15.67L143.54-15.67Q143.54-19.51 144.63-22.74 145.72-25.98 147.67-28.48 149.62-30.98 152.32-32.7 155.02-34.42 158.24-35.25L158.24-35.25Q158.53-35.25 158.69-35.72 158.85-36.18 158.97-36.74 159.1-37.3 159.27-37.77 159.44-38.23 159.76-38.23L159.76-38.23Q164.49-37.74 168.28-36.56 172.06-35.38 174.7-33.18 177.33-30.98 178.74-27.62 180.14-24.27 180.14-19.43L180.14-19.43Q180.14-16.33 179.38-13.6 178.63-10.86 177.26-8.56 175.89-6.25 173.98-4.43 172.06-2.61 169.72-1.34 167.37-0.07 164.68 0.6 161.98 1.27 159.07 1.27ZM183.14-16.5L183.14-16.5Q183.14-19.19 183.79-21.67 184.44-24.15 185.63-26.29 186.83-28.44 188.53-30.2 190.22-31.96 192.32-33.22 194.42-34.47 196.87-35.16 199.33-35.84 202.04-35.84L202.04-35.84Q204.19-35.84 205.81-35.56 207.43-35.28 208.64-34.85 209.85-34.42 210.67-33.91 211.49-33.4 212.02-32.93L212.02-32.93Q212-32.93 212-32.76L212-32.76Q212-32.4 212.06-31.42 212.12-30.44 212.21-29.25 212.29-28.05 212.35-26.82 212.41-25.59 212.41-24.68L212.41-24.68Q212.41-24.54 212.32-24.35 212.22-24.17 211.83-24.17L211.83-24.17Q211.61-24.17 211.29-24.24L211.29-24.24Q210.78-24.39 210-24.91 209.22-25.44 208.18-26.01 207.14-26.59 205.86-27.04 204.58-27.49 203.06-27.49L203.06-27.49Q201.06-27.49 199.43-26.7 197.79-25.9 196.64-24.51 195.5-23.12 194.86-21.2 194.23-19.29 194.23-17.02L194.23-17.02Q194.23-15.01 194.67-13.2 195.1-11.38 196-10.01 196.89-8.64 198.22-7.82 199.55-7.01 201.31-7.01L201.31-7.01Q202.7-7.01 203.77-7.1 204.85-7.2 205.77-7.42 206.7-7.64 207.59-8.01 208.48-8.37 209.51-8.94L209.51-8.94Q209.56-8.96 209.75-8.96L209.75-8.96Q209.92-8.96 209.99-8.83 210.05-8.69 210.05-8.28L210.05-8.28 210.05-5.35Q210.05-4.54 210.03-3.77 210.02-3 210.01-2.39 210-1.78 209.99-1.4 209.97-1.03 209.95-1.03L209.95-1.03Q208.83-0.32 207.54 0.13 206.26 0.59 204.91 0.84 203.55 1.1 202.18 1.18 200.82 1.27 199.55 1.27L199.55 1.27Q196.11 1.27 193.1-0.04 190.1-1.34 187.89-3.69 185.68-6.03 184.41-9.3 183.14-12.57 183.14-16.5ZM227.77-34.94L227.77-34.94Q227.72-34.57 227.67-33.78 227.62-32.98 227.54-31.96 227.45-30.93 227.38-29.77 227.3-28.61 227.22-27.53 227.13-26.44 227.05-25.54 226.96-24.63 226.91-24.1L226.91-24.1 228.16-25.37 231.63-29.66Q232.26-30.47 232.9-31.24 233.53-32.01 234.03-32.63 234.53-33.25 234.85-33.67 235.17-34.08 235.21-34.13L235.21-34.13 246.05-35.03Q246.1-35.06 246.27-35.06L246.27-35.06 246.47-35.06Q247.03-35.06 247.03-34.77L247.03-34.77Q247.03-34.59 246.87-34.36 246.71-34.13 246.4-33.76L246.4-33.76Q246.01-33.3 245.26-32.43 244.52-31.57 243.64-30.53 242.76-29.49 241.82-28.38 240.88-27.27 240.07-26.33 239.27-25.39 238.69-24.71 238.12-24.02 237.97-23.83L237.97-23.83 236.44-22.36Q234.87-20.87 232.43-18.65L232.43-18.65Q233.19-17.87 234.05-16.96 234.92-16.04 235.71-15.2 236.51-14.36 237.16-13.67 237.8-12.99 238.12-12.65L238.12-12.65 245.66-3.91Q245.79-3.76 245.98-3.66 246.18-3.56 246.37-3.49 246.57-3.42 246.7-3.33 246.84-3.25 246.84-3.13L246.84-3.13Q246.84-2.98 246.52-2.66L246.52-2.66Q246.32-2.47 245.79-2.09 245.25-1.71 244.53-1.27 243.81-0.83 242.98-0.37 242.15 0.1 241.38 0.48 240.61 0.85 239.96 1.1 239.32 1.34 238.97 1.34L238.97 1.34Q238.46 1.34 237.9 0.89 237.34 0.44 236.56-0.48 235.78-1.39 234.7-2.81 233.63-4.22 232.11-6.13L232.11-6.13Q231.24-7.23 230.4-8.29 229.57-9.35 228.84-10.29 228.11-11.23 227.51-11.98 226.91-12.72 226.52-13.18L226.52-13.18Q226.33-12.99 226.11-12.81 225.89-12.62 225.69-12.43L225.69-12.43 224.84-1.95Q224.81-1.73 224.75-1.51 224.69-1.29 224.42-1.2L224.42-1.2 217.51 1.29Q217.25 1.39 216.81 1.54 216.37 1.68 215.95 1.68L215.95 1.68Q215.59 1.68 215.34 1.49 215.1 1.29 215.1 0.78L215.1 0.78Q215.22-0.66 215.4-2.95 215.59-5.25 215.79-8.19 216-11.13 216.23-14.61 216.46-18.09 216.73-21.92L216.73-21.92 217.42-32.2Q217.44-32.64 217.47-32.93 217.49-33.23 217.54-33.42 217.59-33.62 217.71-33.72 217.83-33.81 218.08-33.86L218.08-33.86 226.52-35.89Q226.84-35.99 227.18-35.99L227.18-35.99Q227.52-35.99 227.65-35.78 227.77-35.57 227.77-34.94ZM271.08-20.26L271.08-20.26Q270.98-19.92 270.71-19.3 270.44-18.68 270.09-17.9 269.73-17.11 269.33-16.22 268.93-15.33 268.54-14.43L268.54-14.43Q268.39-14.09 268.27-13.93 268.15-13.77 267.88-13.7 267.61-13.62 267.13-13.61 266.66-13.6 265.8-13.57L265.8-13.57 262.41-13.5 261.73-6.03 274.25-6.03 274.25-5.08Q274.2-5.03 273.84-4.43 273.47-3.83 272.98-3 272.49-2.17 271.96-1.33 271.42-0.49 271.05 0.02L271.05 0.02Q270.81 0.46 270.49 0.72 270.17 0.98 269.79 1.1 269.42 1.22 268.96 1.25 268.51 1.27 267.98 1.27L267.98 1.27Q265.78 1.27 263.4 1.17 261.02 1.07 258.65 0.93 256.28 0.78 254.02 0.6 251.76 0.42 249.84 0.22L249.84 0.22Q249.67 0.2 249.53 0.02 249.4-0.15 249.4-0.37L249.4-0.37Q249.3-0.37 249.53-0.78 249.76-1.2 250.18-1.86 250.59-2.51 251.09-3.36 251.59-4.2 252.06-5.05L252.06-5.05 252.45-10.55Q252.55-11.94 252.61-12.62 252.67-13.31 252.67-13.35L252.67-13.35Q251.2-13.38 250.48-13.5 249.76-13.62 249.76-14.04L249.76-14.04Q249.76-14.23 250.12-14.77 250.47-15.31 250.98-16 251.5-16.7 252.07-17.46 252.64-18.21 253.08-18.85L253.08-18.85 253.69-27.15 253.62-27.15Q253.08-27.12 252.64-27.11 252.2-27.1 251.84-27.1L251.84-27.1Q250.67-27.1 250.17-27.23 249.67-27.37 249.67-27.73L249.67-27.73Q249.67-27.91 249.96-28.44 250.25-28.98 250.69-29.68 251.13-30.37 251.62-31.14 252.11-31.91 252.5-32.57L252.5-32.57 253.96-35.06 264.17-35.06 276.2-35.94Q276.23-35.94 276.34-35.93 276.45-35.91 276.57-35.85 276.69-35.79 276.8-35.64 276.91-35.5 276.91-35.23L276.91-35.23 276.55-33.96Q276.37-33.42 276.13-32.82 275.89-32.23 275.59-31.59L275.59-31.59 274.52-28.76Q274.35-28.34 274.13-28.13 273.91-27.91 273.2-27.88L273.2-27.88Q271.34-27.83 269.06-27.72 266.78-27.61 263.83-27.51L263.83-27.51Q263.73-27.17 263.73-26.97 263.73-26.76 263.68-26.17L263.68-26.17 263.56-25.05Q263.51-24.27 263.41-23.36 263.31-22.46 263.17-21.14L263.17-21.14Q264.41-21.19 265.6-21.24 266.78-21.29 267.76-21.33 268.73-21.36 269.45-21.39 270.17-21.41 270.47-21.41L270.47-21.41Q270.66-21.41 270.91-21.26 271.15-21.12 271.15-20.7L271.15-20.7Q271.15-20.51 271.08-20.26ZM283.6 0.88L283.6 0.78Q283.72-1 283.84-2.66 283.96-4.32 284.06-5.88L284.06-5.88 284.94-17.41Q285.09-18.73 285.19-19.81 285.28-20.9 285.34-21.94 285.4-22.97 285.47-24.04 285.53-25.1 285.6-26.39L285.6-26.39Q284.79-26.42 283.9-26.42 283.01-26.42 282.04-26.42L282.04-26.42 277.32-26.42Q277.06-26.42 276.99-26.62 276.93-26.83 276.93-27L276.93-27 276.93-27.17 279.62-34.23 279.59-34.33Q279.59-34.45 279.75-34.53 279.91-34.62 280.47-34.67L280.47-34.67Q283.84-34.86 287-35.05 290.17-35.23 293.25-35.38 296.34-35.52 299.43-35.67 302.52-35.82 305.79-35.94L305.79-35.94Q306.08-35.94 306.41-35.86 306.74-35.79 306.74-35.33L306.74-35.33Q306.74-35.28 306.72-35.23 306.69-35.18 306.69-35.13L306.69-35.13Q306.3-34.13 305.97-33.23 305.64-32.32 305.33-31.45 305.01-30.57 304.68-29.66 304.35-28.76 303.96-27.76L303.96-27.76Q303.94-27.73 303.86-27.53 303.79-27.32 303.64-27.06 303.5-26.81 303.25-26.59 303.01-26.37 302.64-26.34L302.64-26.34Q302.52-26.37 302.4-26.37 302.27-26.37 302.13-26.37L302.13-26.37 295.61-26.37Q295.49-25.12 295.38-23.73 295.27-22.34 295.12-21.02L295.12-21.02 293.34-1.95Q293.31-1.73 293.25-1.51 293.19-1.29 292.92-1.2L292.92-1.2 286.02 1.29Q285.75 1.39 285.31 1.54 284.87 1.68 284.45 1.68L284.45 1.68Q284.11 1.68 283.85 1.51 283.6 1.34 283.6 0.88L283.6 0.88Z" opacity="1" transform="matrix(1,0,0,1,0,0)" fill="#1d32d3" class="wordmark-text-0" data-fill-palette-color="primary" id="text-0"></path></svg></g></svg></g></svg></g></svg></g><g transform="matrix(1,0,0,1,166.03204787029722,0)"><svg viewBox="0 0 63.45590425940553 71.49069085673146" height="71.49069085673146" width="63.45590425940553"><g><svg xmlns="http://www.w3.org/2000/svg" xmlns:xlink="http://www.w3.org/1999/xlink" version="1.1" x="0" y="0" viewBox="0 0 100 112.662" enable-background="new 0 0 100 112.662" xml:space="preserve" width="63.45590425940553" height="71.49069085673146" class="icon-icon-0" data-fill-palette-color="accent" id="icon-0"><g fill="#1d32d3" data-fill-palette-color="accent"><path d="M72.528 51.2c4.216 4.266 7.23 9.72 8.491 15.818 3.82 0.319 6.822 3.516 6.822 7.417 0 4.114-3.335 7.449-7.449 7.449s-7.449-3.335-7.449-7.449c0-3.473 2.38-6.381 5.596-7.206-1.665-7.775-6.36-14.545-12.776-18.829-0.063-0.021-0.124-0.044-0.187-0.064L49.524 76.782 34.306 48.373c-1.181 0.388-2.343 0.82-3.483 1.292-6.215 5.014-9.712 12.851-10.001 22.492 6.311 0.552 11.318 8.355 11.318 17.929l-2.334 1.984c0.198 0.305 0.315 0.666 0.315 1.057 0 1.074-0.871 1.944-1.945 1.944-1.073 0-1.944-0.87-1.944-1.944s0.871-1.944 1.944-1.944c0.375 0 0.723 0.111 1.021 0.296l2.005-1.393c0-9.156-4.965-16.579-11.09-16.579-6.125 0-11.09 7.423-11.09 16.579l1.835 1.274c0.245-0.111 0.516-0.178 0.803-0.178 1.074 0 1.945 0.87 1.945 1.944s-0.871 1.944-1.945 1.944c-1.074 0-1.945-0.87-1.945-1.944 0-0.48 0.181-0.915 0.47-1.254l-2.102-1.787c0-9.037 4.463-16.494 10.271-17.77 0.293-8.226 2.717-15.653 8.125-21.121C11.451 58.743 1.731 73.601 0 91.108c9.946 15.371 28.612 21.554 50 21.554 21.387 0 40.054-6.183 50-21.553C98.269 73.603 87.551 58.749 72.528 51.2zM70.412 92.21h-4.985v4.984h-4.249V92.21h-4.985v-4.249h4.985v-4.985h4.249v4.985h4.985V92.21z" fill="#1d32d3" data-fill-palette-color="accent"></path><path d="M81.441 69.662c-0.339-0.074-0.688-0.119-1.049-0.119-0.499 0-0.972 0.097-1.426 0.235-2.002 0.613-3.468 2.454-3.468 4.657 0 2.703 2.191 4.895 4.894 4.895s4.893-2.191 4.893-4.895C85.285 72.094 83.638 70.143 81.441 69.662z" fill="#1d32d3" data-fill-palette-color="accent"></path><path d="M50 0C36.652 0 25.832 10.82 25.832 24.167c0 8.577 4.472 16.104 11.207 20.394 0.475 0.302 0.957 0.594 1.453 0.863 3.422 1.856 7.342 2.911 11.509 2.911 3.902 0 7.586-0.931 10.85-2.574 0.726-0.366 1.43-0.766 2.111-1.201 6.734-4.289 11.206-11.817 11.206-20.394C74.167 10.82 63.347 0 50 0z" fill="#1d32d3" data-fill-palette-color="accent"></path></g></svg></g></svg></g><g></g></svg></g><defs></defs></svg><rect width="395.52" height="135.43275105313177" fill="none" stroke="none" visibility="hidden"></rect></g></svg></g></svg>